<svg width="20" height="19" viewBox="0 0 20 19" fill="none" xmlns="http://www.w3.org/2000/svg">
<path d="M16.0005 12.5H14.0005V14.5H16.0005M16.0005 8.5H14.0005V10.5H16.0005M18.0005 16.5H10.0005V14.5H12.0005V12.5H10.0005V10.5H12.0005V8.5H10.0005V6.5H18.0005M8.00049 4.5H6.00049V2.5H8.00049M8.00049 8.5H6.00049V6.5H8.00049M8.00049 12.5H6.00049V10.5H8.00049M8.00049 16.5H6.00049V14.5H8.00049M4.00049 4.5H2.00049V2.5H4.00049M4.00049 8.5H2.00049V6.5H4.00049M4.00049 12.5H2.00049V10.5H4.00049M4.00049 16.5H2.00049V14.5H4.00049M10.0005 4.5V0.5H0.000488281V18.5H20.0005V4.5H10.0005Z" fill="#20A4F3"/>
</svg>
