<svg width="21" height="21" viewBox="0 0 21 21" fill="none" xmlns="http://www.w3.org/2000/svg">
<path d="M20.741 10.8238L11.741 0.823824C11.362 0.401824 10.634 0.401824 10.255 0.823824L1.25503 10.8238C1.12549 10.9674 1.04046 11.1456 1.01027 11.3366C0.980095 11.5276 1.00607 11.7233 1.08503 11.8998C1.24503 12.2608 1.60303 12.4928 1.99803 12.4928H3.99803V19.4928C3.99803 19.758 4.10339 20.0124 4.29092 20.1999C4.47846 20.3875 4.73281 20.4928 4.99803 20.4928H7.99803C8.26325 20.4928 8.5176 20.3875 8.70514 20.1999C8.89267 20.0124 8.99803 19.758 8.99803 19.4928V15.4928H12.998V19.4928C12.998 19.758 13.1034 20.0124 13.2909 20.1999C13.4785 20.3875 13.7328 20.4928 13.998 20.4928H16.998C17.2632 20.4928 17.5176 20.3875 17.7051 20.1999C17.8927 20.0124 17.998 19.758 17.998 19.4928V12.4928H19.998C20.1917 12.4936 20.3814 12.4381 20.5441 12.333C20.7067 12.2278 20.8353 12.0776 20.914 11.9007C20.9928 11.7238 21.0184 11.5278 20.9876 11.3365C20.9569 11.1453 20.8712 10.9672 20.741 10.8238Z" fill="#20A4F3"/>
</svg>
