<svg width="18" height="19" viewBox="0 0 18 19" fill="none" xmlns="http://www.w3.org/2000/svg">
<path fill-rule="evenodd" clip-rule="evenodd" d="M3.50049 0.538086C2.24249 0.608086 1.44849 0.808086 0.879488 1.37809C0.000488222 2.25709 0.000488281 3.67109 0.000488281 6.49909V12.4991C0.000488281 15.3281 0.000488222 16.7421 0.879488 17.6211C1.75749 18.4991 3.17249 18.4991 6.00049 18.4991H12.0005C14.8285 18.4991 16.2435 18.4991 17.1215 17.6211C18.0005 16.7411 18.0005 15.3281 18.0005 12.4991V6.49909C18.0005 3.67109 18.0005 2.25709 17.1215 1.37809C16.5525 0.808086 15.7585 0.608086 14.5005 0.538086V1.00109C14.5005 1.79674 14.1844 2.5598 13.6218 3.12241C13.0592 3.68502 12.2961 4.00109 11.5005 4.00109H6.50049C5.70484 4.00109 4.94178 3.68502 4.37917 3.12241C3.81656 2.5598 3.50049 1.79674 3.50049 1.00109V0.538086ZM3.25049 7.00109C3.25049 6.80217 3.32951 6.61141 3.47016 6.47076C3.61081 6.3301 3.80158 6.25109 4.00049 6.25109H14.0005C14.1994 6.25109 14.3902 6.3301 14.5308 6.47076C14.6715 6.61141 14.7505 6.80217 14.7505 7.00109C14.7505 7.2 14.6715 7.39076 14.5308 7.53142C14.3902 7.67207 14.1994 7.75109 14.0005 7.75109H4.00049C3.80158 7.75109 3.61081 7.67207 3.47016 7.53142C3.32951 7.39076 3.25049 7.2 3.25049 7.00109ZM4.25049 10.5011C4.25049 10.3022 4.32951 10.1114 4.47016 9.97076C4.61081 9.8301 4.80158 9.75109 5.00049 9.75109H13.0005C13.1994 9.75109 13.3902 9.8301 13.5308 9.97076C13.6715 10.1114 13.7505 10.3022 13.7505 10.5011C13.7505 10.7 13.6715 10.8908 13.5308 11.0314C13.3902 11.1721 13.1994 11.2511 13.0005 11.2511H5.00049C4.80158 11.2511 4.61081 11.1721 4.47016 11.0314C4.32951 10.8908 4.25049 10.7 4.25049 10.5011ZM5.25049 14.0011C5.25049 13.8022 5.32951 13.6114 5.47016 13.4708C5.61081 13.3301 5.80158 13.2511 6.00049 13.2511H12.0005C12.1994 13.2511 12.3902 13.3301 12.5308 13.4708C12.6715 13.6114 12.7505 13.8022 12.7505 14.0011C12.7505 14.2 12.6715 14.3908 12.5308 14.5314C12.3902 14.6721 12.1994 14.7511 12.0005 14.7511H6.00049C5.80158 14.7511 5.61081 14.6721 5.47016 14.5314C5.32951 14.3908 5.25049 14.2 5.25049 14.0011Z" fill="#20A4F3"/>
</svg>
