<svg width="20" height="21" viewBox="0 0 20 21" fill="none" xmlns="http://www.w3.org/2000/svg">
<path d="M10.0005 0.5C11.3266 0.5 12.5983 1.02678 13.536 1.96447C14.4737 2.90215 15.0005 4.17392 15.0005 5.5C15.0005 6.82608 14.4737 8.09785 13.536 9.03553C12.5983 9.97322 11.3266 10.5 10.0005 10.5C8.67441 10.5 7.40264 9.97322 6.46495 9.03553C5.52727 8.09785 5.00049 6.82608 5.00049 5.5C5.00049 4.17392 5.52727 2.90215 6.46495 1.96447C7.40264 1.02678 8.67441 0.5 10.0005 0.5ZM10.0005 13C15.5255 13 20.0005 15.2375 20.0005 18V20.5H0.000488281V18C0.000488281 15.2375 4.47549 13 10.0005 13Z" fill="white"/>
</svg>
