<svg width="500" height="501" viewBox="0 0 500 501" fill="none" xmlns="http://www.w3.org/2000/svg">
<rect y="0.671387" width="500" height="500" fill="#272626"/>
<mask id="mask0_893_13" style="mask-type:luminance" maskUnits="userSpaceOnUse" x="67" y="92" width="367" height="318">
<path fill-rule="evenodd" clip-rule="evenodd" d="M375.654 308.827C377.201 307.938 378.488 306.658 379.384 305.115C380.281 303.573 380.756 301.822 380.762 300.037L380.945 241.168C380.95 239.384 381.425 237.633 382.322 236.09C383.218 234.547 384.504 233.267 386.051 232.379L417.963 214.049C420.3 212.708 423.073 212.349 425.674 213.05C428.276 213.75 430.493 215.454 431.84 217.787C432.731 219.333 433.201 221.085 433.201 222.869V329.893C433.201 331.683 432.729 333.44 431.832 334.989C430.936 336.538 429.646 337.823 428.094 338.713L307.662 407.887C306.124 408.769 304.381 409.234 302.608 409.236C300.834 409.238 299.091 408.776 297.551 407.897L203.037 353.84C201.481 352.95 200.187 351.665 199.287 350.114C198.387 348.564 197.912 346.803 197.91 345.01V291.045C197.91 290.985 197.982 290.944 198.043 290.973C198.055 290.981 198.069 290.986 198.084 290.986C198.098 290.986 198.113 290.983 198.125 290.975C198.138 290.968 198.148 290.957 198.155 290.945C198.162 290.932 198.165 290.917 198.164 290.903V290.842C198.164 290.801 198.186 290.76 198.227 290.741L276.066 246.022C276.137 245.981 276.105 245.869 276.025 245.869C276.004 245.869 275.983 245.86 275.968 245.845C275.953 245.83 275.944 245.809 275.943 245.787L276.096 192.879C276.104 191.09 275.64 189.33 274.75 187.778C273.86 186.226 272.576 184.936 271.027 184.039C269.48 183.142 267.723 182.668 265.934 182.666C264.145 182.665 262.387 183.135 260.838 184.03L202.986 217.366C201.442 218.254 199.692 218.721 197.91 218.721C196.129 218.721 194.378 218.254 192.834 217.366L134.799 183.948C133.253 183.057 131.5 182.588 129.715 182.589C127.931 182.59 126.179 183.06 124.634 183.953C123.089 184.845 121.806 186.129 120.913 187.674C120.021 189.219 119.551 190.972 119.551 192.756V288.379C119.553 290.162 119.086 291.913 118.198 293.458C117.309 295.004 116.031 296.288 114.489 297.184C112.948 298.079 111.199 298.553 109.416 298.56C107.634 298.566 105.881 298.104 104.334 297.219L72.127 278.807C70.5669 277.916 69.2707 276.628 68.3701 275.074C67.4696 273.519 66.9968 271.754 67 269.957L67.2852 102.823C67.2889 101.041 67.7607 99.2912 68.6532 97.7491C69.5457 96.2069 70.8276 94.9262 72.3707 94.0352C73.9137 93.1443 75.6637 92.6742 77.4455 92.6722C79.2273 92.6702 80.9784 93.1363 82.5235 94.0238L192.844 157.389C194.385 158.275 196.132 158.741 197.91 158.741C199.688 158.741 201.435 158.275 202.977 157.389L313.268 94.0238C315.605 92.6802 318.381 92.3201 320.984 93.0226C323.587 93.7251 325.804 95.4327 327.148 97.7699C328.039 99.3148 328.506 101.069 328.506 102.854V270.028C328.506 271.816 328.035 273.573 327.14 275.122C326.245 276.67 324.958 277.955 323.408 278.848L265.648 312.112C264.098 313.007 262.811 314.296 261.917 315.847C261.023 317.399 260.554 319.159 260.557 320.95C260.56 322.74 261.037 324.498 261.938 326.046C262.839 327.593 264.134 328.875 265.689 329.762L297.551 347.899C299.09 348.776 300.832 349.236 302.604 349.233C304.376 349.23 306.116 348.763 307.652 347.879L375.654 308.827ZM382.338 158.864C382.341 160.662 382.82 162.428 383.726 163.982C384.633 165.535 385.935 166.821 387.5 167.707C389.066 168.594 390.838 169.049 392.637 169.027C394.436 169.005 396.197 168.505 397.74 167.58L428.258 149.27C429.764 148.367 431.01 147.089 431.876 145.562C432.743 144.034 433.199 142.309 433.201 140.553V103.239C433.197 101.894 432.927 100.563 432.407 99.3233C431.886 98.0834 431.124 96.959 430.167 96.015C429.209 95.0709 428.074 94.3258 426.827 93.8228C425.58 93.3198 424.245 93.0688 422.9 93.0843C421.102 93.1075 419.342 93.6068 417.799 94.5316L387.281 112.842C385.774 113.745 384.527 115.022 383.66 116.55C382.794 118.078 382.338 119.804 382.338 121.561V158.873V158.864Z" fill="white"/>
</mask>
<g mask="url(#mask0_893_13)">
<rect y="0.671387" width="240" height="500" fill="#00D8FF"/>
<rect x="260" y="0.671387" width="240" height="500" fill="#F44250"/>
</g>
</svg>
